# xmcd CD database file
#
# Track frame offsets:
#	150
#	6602
#	32056
#	40984
#	57163
#	80060
#	99403
#	115111
#	128275
#	143088
#
# Disc length: 2187 seconds
#
# Revision: 2
# Processed by: cddbd v1.5.2PL0 Copyright (c) Steve Scherf et al.
# Submitted via: CDex 1.70beta3
#
DISCID=7d08890a
DTITLE=のいづんずり - 抱擁
DYEAR=1985
DGENRE=Blues
TTITLE0=愛
TTITLE1=フィギュア＆グラウンド
TTITLE2=子守唄（蝉の悦び）
TTITLE3=なんきん　くずし
TTITLE4=恋の数え唄
TTITLE5=三犀踊
TTITLE6=きんにゃもにゃ
TTITLE7=どんたく　ばやし
TTITLE8=よさこい　のいづ踊り
TTITLE9=ラブ・ツームストン
EXTD=YEAR: 1985
EXTT0=
EXTT1=
EXTT2=
EXTT3=
EXTT4=
EXTT5=
EXTT6=
EXTT7=
EXTT8=
EXTT9=
PLAYORDER=
